<?xml version="1.0" standalone="no"?>
<svg xmlns:xlink="http://www.w3.org/1999/xlink" id="wave" style="transform:rotate(180deg); transition: 0.3s" viewBox="0 0 1440 100" version="1.1" xmlns="http://www.w3.org/2000/svg"><defs><linearGradient id="sw-gradient-0" x1="0" x2="0" y1="1" y2="0"><stop stop-color="rgba(189, 251, 252, 1)" offset="0%"/><stop stop-color="rgba(189, 251, 252, 1)" offset="100%"/></linearGradient></defs><path style="transform:translate(0, 0px); opacity:1" fill="url(#sw-gradient-0)" d="M0,50L26.7,51.7C53.3,53,107,57,160,50C213.3,43,267,27,320,31.7C373.3,37,427,63,480,63.3C533.3,63,587,37,640,28.3C693.3,20,747,30,800,28.3C853.3,27,907,13,960,10C1013.3,7,1067,13,1120,25C1173.3,37,1227,53,1280,50C1333.3,47,1387,23,1440,25C1493.3,27,1547,53,1600,53.3C1653.3,53,1707,27,1760,16.7C1813.3,7,1867,13,1920,18.3C1973.3,23,2027,27,2080,28.3C2133.3,30,2187,30,2240,40C2293.3,50,2347,70,2400,76.7C2453.3,83,2507,77,2560,63.3C2613.3,50,2667,30,2720,26.7C2773.3,23,2827,37,2880,38.3C2933.3,40,2987,30,3040,30C3093.3,30,3147,40,3200,45C3253.3,50,3307,50,3360,56.7C3413.3,63,3467,77,3520,73.3C3573.3,70,3627,50,3680,48.3C3733.3,47,3787,63,3813,71.7L3840,80L3840,100L3813.3,100C3786.7,100,3733,100,3680,100C3626.7,100,3573,100,3520,100C3466.7,100,3413,100,3360,100C3306.7,100,3253,100,3200,100C3146.7,100,3093,100,3040,100C2986.7,100,2933,100,2880,100C2826.7,100,2773,100,2720,100C2666.7,100,2613,100,2560,100C2506.7,100,2453,100,2400,100C2346.7,100,2293,100,2240,100C2186.7,100,2133,100,2080,100C2026.7,100,1973,100,1920,100C1866.7,100,1813,100,1760,100C1706.7,100,1653,100,1600,100C1546.7,100,1493,100,1440,100C1386.7,100,1333,100,1280,100C1226.7,100,1173,100,1120,100C1066.7,100,1013,100,960,100C906.7,100,853,100,800,100C746.7,100,693,100,640,100C586.7,100,533,100,480,100C426.7,100,373,100,320,100C266.7,100,213,100,160,100C106.7,100,53,100,27,100L0,100Z"/></svg>